<svg width="100" height="16" viewBox="0 0 100 16" fill="none" xmlns="http://www.w3.org/2000/svg">
<path d="M51.076 6.31806C49.475 5.84406 48.517 5.54006 48.065 5.36006C47.685 5.18106 47.205 4.90206 47.205 4.45206C47.205 3.85006 47.785 3.54406 48.934 3.54406C49.898 3.54406 50.999 3.70806 52.204 4.02906C53.166 4.26706 54.019 4.57106 54.746 4.93406V1.15206C53.0326 0.387058 51.1764 -0.00559286 49.3 6.01837e-05C45.143 6.01837e-05 42.758 1.67306 42.758 4.58806C42.758 6.89006 44.257 8.31306 47.771 9.34606C49.118 9.74606 49.995 10.0361 50.454 10.2431C50.828 10.4111 51.325 10.6871 51.325 11.1681C51.325 12.2331 49.697 12.2331 49.162 12.2331C48.071 12.2331 46.855 12.0131 45.443 11.5631C44.365 11.2191 43.464 10.8061 42.758 10.3331V14.2671C44.472 15.3011 46.595 15.8231 49.071 15.8231C51.094 15.8231 52.741 15.3731 53.966 14.4831C55.179 13.5931 55.771 12.4371 55.771 10.9431C55.771 8.72306 54.324 7.29606 51.076 6.31806ZM92.255 11.9601V9.51306H98.283V6.30706H92.255V3.86006H99.864V0.31606H87.992V15.5061H100.001V11.9601H92.255ZM82.865 9.34306C84.605 8.48006 85.605 6.92806 85.605 5.08506C85.605 3.71206 85.089 2.56806 84.074 1.68506C83.051 0.77606 81.657 0.31706 79.93 0.31706H72.547V15.5071H76.811V9.85306H77.971L82.207 15.5061H87.121L82.518 9.51806L82.865 9.34506V9.34306ZM79.359 6.94106H76.809V3.74806H79.359C80.463 3.74806 81.203 4.38606 81.203 5.33406C81.203 6.28206 80.463 6.94106 79.359 6.94106ZM66.252 9.58506C66.252 10.8381 65.223 11.8561 63.96 11.8561C62.697 11.8561 61.667 10.8361 61.667 9.58506V0.31606H57.414V9.37406C57.414 12.9491 60.351 15.8591 63.96 15.8591C67.569 15.8591 70.505 12.9491 70.505 9.37406V0.31606H66.252V9.58506ZM2.5 3.73606C2.20078 4.49091 2.07664 5.30379 2.13692 6.11354C2.19719 6.92329 2.44032 7.70883 2.848 8.41106C1.85467 8.74773 0.905333 9.09973 0 9.46706V13.6681C1.89428 12.8259 3.8422 12.11 5.831 11.5251L10.058 15.4951H15.694L10.32 10.4451C13.1906 9.90175 16.1054 9.62557 19.027 9.62006V5.75106C14.567 5.76006 10.512 6.33806 6.899 7.23106L6.453 6.81206C5.761 6.16206 5.994 5.38206 6.081 5.15606C6.167 4.93006 6.529 4.20106 7.476 4.20106H19.026V0.33206H7.475C6.39876 0.329633 5.34708 0.653688 4.45885 1.26143C3.57062 1.86918 2.88761 2.73203 2.5 3.73606ZM25.917 0.31606H21.652V15.5061H25.917V0.31606ZM36.654 6.31806C35.054 5.84406 34.095 5.54006 33.643 5.36006C33.263 5.18106 32.783 4.90206 32.783 4.45206C32.783 3.85006 33.363 3.54406 34.512 3.54406C35.476 3.54406 36.578 3.70806 37.782 4.02906C38.745 4.26706 39.597 4.57106 40.324 4.93406V1.15206C38.6106 0.387058 36.7544 -0.00559286 34.878 6.01837e-05C30.721 6.01837e-05 28.336 1.67306 28.336 4.58806C28.336 6.89006 29.835 8.31306 33.349 9.34606C34.696 9.74606 35.573 10.0361 36.032 10.2431C36.406 10.4111 36.903 10.6871 36.903 11.1681C36.903 12.2331 35.275 12.2331 34.74 12.2331C33.65 12.2331 32.434 12.0131 31.021 11.5631C29.943 11.2191 29.042 10.8061 28.336 10.3331V14.2671C30.051 15.3011 32.173 15.8231 34.649 15.8231C36.673 15.8231 38.319 15.3731 39.544 14.4831C40.757 13.5931 41.349 12.4371 41.349 10.9431C41.349 8.72306 39.901 7.29606 36.654 6.31806Z" fill="black"/>
</svg>
